inDegrees=no
num_controls=7
num_derivatives=13
num_iterations=198
num_multipliers=7
num_parameters=0
num_slacks=7
num_states=26
objective=5.991407
objective_accelerations=0.757965
objective_balance=0.021599
objective_effort=0.516958
objective_height=4.578321
objective_ligament=0.116563
solver_duration=1696.933521
status=Solve_Succeeded
success=true
DataType=double
version=3
OpenSimVersion=4.4-2022-07-23-0e9fedc
endheader
time	/jointset/ground_pelvis/pelvis_tilt/value	/jointset/ground_pelvis/pelvis_tx/value	/jointset/ground_pelvis/pelvis_ty/value	/jointset/hip_r/hip_flexion_r/value	/jointset/hip_r/hip_adduction_r/value	/jointset/hip_r/hip_rotation_r/value	/jointset/back/lumbar_extension/value	/jointset/patellofemoral_r/patellar_flexion_r/value	/jointset/knee_r/knee_flexion_r/value	/jointset/knee_r/knee_adduction_r/value	/jointset/knee_r/knee_rotation_r/value	/jointset/ankle_r/ankle_angle_r/value	/jointset/subtalar_r/subtalar_angle_r/value	/jointset/ground_pelvis/pelvis_tilt/speed	/jointset/ground_pelvis/pelvis_tx/speed	/jointset/ground_pelvis/pelvis_ty/speed	/jointset/hip_r/hip_flexion_r/speed	/jointset/hip_r/hip_adduction_r/speed	/jointset/hip_r/hip_rotation_r/speed	/jointset/back/lumbar_extension/speed	/jointset/patellofemoral_r/patellar_flexion_r/speed	/jointset/knee_r/knee_flexion_r/speed	/jointset/knee_r/knee_adduction_r/speed	/jointset/knee_r/knee_rotation_r/speed	/jointset/ankle_r/ankle_angle_r/speed	/jointset/subtalar_r/subtalar_angle_r/speed	/forceset/tau_hip_flexion_r	/forceset/tau_hip_adduction_r	/forceset/tau_hip_rotation_r	/forceset/tau_knee_flexion_r	/forceset/tau_ankle_angle_r	/forceset/tau_subtalar_angle_r	/forceset/tau_lumbar_extension	lambda_cid13_p0	lambda_cid14_p0	lambda_cid14_p1	lambda_cid14_p2	lambda_cid14_p3	lambda_cid14_p4	lambda_cid14_p5	/jointset/ground_pelvis/pelvis_tilt/accel	/jointset/ground_pelvis/pelvis_tx/accel	/jointset/ground_pelvis/pelvis_ty/accel	/jointset/hip_r/hip_flexion_r/accel	/jointset/hip_r/hip_adduction_r/accel	/jointset/hip_r/hip_rotation_r/accel	/jointset/back/lumbar_extension/accel	/jointset/patellofemoral_r/patellar_flexion_r/accel	/jointset/knee_r/knee_flexion_r/accel	/jointset/knee_r/knee_adduction_r/accel	/jointset/knee_r/knee_rotation_r/accel	/jointset/ankle_r/ankle_angle_r/accel	/jointset/subtalar_r/subtalar_angle_r/accel	gamma_cid13_p0	gamma_cid14_p0	gamma_cid14_p1	gamma_cid14_p2	gamma_cid14_p3	gamma_cid14_p4	gamma_cid14_p5
0	0.001684316886980595	0.1270403022796147	0.9345695003562338	0.1934208783645156	-0.2132854222247108	-0.2395791591516751	-0.2903791543005566	0.2311793314021587	0.2311793314021609	0.1003783283790852	0.1623078607066333	0.08934340440958972	0.08232635571346399	0	0	0	0	0	0	0	0	0	0	0	0	0	0.1238245117886258	-0.06729338347390276	0.0001668307027272542	-0.2555226389259681	0.1324447095603939	-0.05670681268827665	-0.04210489360371188	-29.51104058199534	-2.040588118404682	-21.14092541092598	-0.5985521269864083	2.118053762681028	-604.0305298904763	61.67454212388149	-2.45662709696039	-2.074147209501104	-0.9990585999243149	11.5049948990042	0.0272072236980471	2.054120086082165	-6.674536590369184	11.33620381759843	11.33620381759845	-3.057417781208172	0.6302217694573971	3.026187468429101	0.9330213289064239	3.991913128824053e-08	2.365342079436559e-08	-3.088418047643489e-07	2.492223580139671e-07	1.099496705562134e-08	1.768950840994383e-07	-2.87245267947055e-07
0.01	0.001568612491981566	0.1269380722252929	0.9345209277980626	0.1939808880587185	-0.2132824306970549	-0.2394765696989775	-0.2907148627170558	0.2317351886048095	0.231735188604814	0.1002250158928049	0.1623358972882437	0.08949216476512596	0.08237425235274874	-0.02305327653628769	-0.02032518964185258	-0.009687891052432618	0.1114707333099035	0.0005780456129755813	0.02043311182693054	-0.06668057031151124	0.1106561130526663	0.1106561130526665	-0.03047518945683635	0.005562641157253018	0.02963731279481164	0.009521827377826144	0.1194574507686125	-0.0707082965680438	0.000400617141974376	-0.2519314128045361	0.1275023955715159	-0.05183172964626689	-0.03806717076909389	-29.51785204487578	-3.40470021593996	-19.12175266782203	-1.081257372272942	1.984576351032634	-605.7138652842858	65.51827491932328	-2.216540434552613	-1.993579459101998	-0.9496258916193173	10.88843142331462	0.07006038843211791	2.025240968344816	-6.595650303368027	10.85300794354061	10.85300794354063	-3.014499696969572	0.5126332768543536	2.915295674147277	0.9531193186956891	5.033625841859275e-08	6.505575197325122e-09	-3.694771705993272e-07	2.664396042623882e-07	3.282812197246193e-08	2.295503972876546e-08	-3.211590922739061e-07
0.02	0.001225002831104085	0.1266362153510376	0.9343762820226238	0.1956396688612886	-0.2132742672816031	-0.239172182280541	-0.2917035434470344	0.2333821455168804	0.2333821455168806	0.09977256547814753	0.1624182298790161	0.08993385674643864	0.08251563844110676	-0.04558105317617154	-0.03992536398668753	-0.01921464345351019	0.2197542216730529	0.001034377559345237	0.04035959314771548	-0.1305944626960637	0.2182199418829279	0.2182199418829286	-0.05982758567560088	0.0108592018343098	0.05858632515522676	0.01869788981465138	0.1150903897486059	-0.07412320966218955	0.0006344035811779258	-0.2483401866830958	0.1225600815826396	-0.04695664660426175	-0.03402944793447074	-29.53770226309324	-4.679993805937762	-17.10354354066185	-1.544944153821081	1.884643842031212	-605.9775060050139	69.07675045166913	-2.35152711767966	-1.929144150097557	-0.9668308696533081	10.86754590965338	0.002864490376864723	1.952793984853045	-6.12120100497745	10.7177469731175	10.71774697311755	-2.832859133593815	0.5770056734181451	2.888527381549815	0.8638683407062503	6.075338554894498e-08	-1.064227039971535e-08	-4.301125364343055e-07	2.836568505108092e-07	5.466127688930253e-08	-1.309850046419073e-07	-3.550729166007573e-07
0.03	0.0006583796664427516	0.1261418229153211	0.9341368080540219	0.1983660610932127	-0.2132623371860596	-0.238671686445121	-0.293317299833114	0.2360895155116569	0.2360895155116535	0.09903260791278917	0.162552672875263	0.090661348878718	0.08274678679810307	-0.06764349071121675	-0.05884724625435868	-0.02868112731039212	0.3250069596104608	0.00133944047044054	0.05963702207894912	-0.191726018128001	0.3227442205392293	0.3227442205392307	-0.08798590465632657	0.01597110158239572	0.08677891918725518	0.0274816624683293	0.1096553725711592	-0.07004560841398429	0.0008636103819307025	-0.2437150904341625	0.117438985211331	-0.04701672967565621	-0.02943871320219793	-29.5696445709133	-6.309703120335445	-17.35826699567186	-1.569123348431947	2.259564425901337	-606.1467032774655	67.5574293864621	-2.118584475873007	-1.857817709247099	-0.936730519215036	10.27654921806821	0.04248982369226695	1.899894500571318	-6.044513353593966	10.2432806391549	10.24328063915498	-2.780654711299178	0.4695947777641156	2.764654607213679	0.878080568246141	6.152911549786342e-08	-2.483132907664981e-08	-4.252559688693311e-07	2.350695212930604e-07	6.63288918453357e-08	-2.620279128722406e-07	-3.137985574841781e-07
0.04	-0.0001258643544577242	0.1254613901680988	0.9338026345717492	0.202129463000972	-0.2132477239349639	-0.2379814808897275	-0.2955294478817702	0.2398268307584479	0.2398268307584479	0.09801639987143204	0.1627364973994474	0.09166677278995436	0.08306426264974569	-0.08910522442451495	-0.07713342628783619	-0.03815454618763322	0.4271561568392145	0.001571008670190395	0.07830153714269525	-0.2502727952116255	0.4242089922862688	0.4242089922862712	-0.1150776808765425	0.02073550742089238	0.1141726809466567	0.03596338874391061	0.1042203553937416	-0.0659680071657737	0.001092817182713011	-0.2390899941852133	0.1123178888400303	-0.04707681274704221	-0.0248479784699074	-29.61218831968526	-7.858825518986691	-17.61477597956738	-1.574860846522361	2.653821732327757	-605.032092807057	65.7846879241352	-2.231386353330288	-1.802003703258813	-0.9682178737251435	10.24683776792254	-0.01183445189222129	1.830211211355545	-5.604245335314888	10.10584559126511	10.10584559126519	-2.619550581491871	0.5075068915002896	2.728760927024445	0.8034590650869347	6.210605375231929e-08	-3.895938183770579e-08	-4.190490521620895e-07	1.85125396704875e-07	7.778690803929038e-08	-3.925987152027732e-07	-2.70973926544023e-07
0.05	-0.001122336124245907	0.1246013446210572	0.9333733629258193	0.2068995488636901	-0.213231558621012	-0.2371079499176796	-0.2983136172744572	0.244563831263325	0.2445638312633236	0.09673544849949588	0.1629665543602296	0.09294215839673108	0.08346458711862821	-0.1100929132146116	-0.09476115366206256	-0.04772299387474449	0.5263433862464995	0.001655997409606093	0.09628183943063717	-0.3061399440193935	0.5226823313277573	0.522682331327765	-0.1409417162737052	0.0252122669818153	0.1407789178595012	0.04406381393791911	0.09862675814396761	-0.06417066941049128	0.001348949092602277	-0.23545047674014	0.107821925208502	-0.04521678853477804	-0.02021397511520616	-29.66364566021904	-9.095689045034337	-16.97470625588377	-1.732677848169654	2.69791866945021	-604.0414428753409	65.91425421177115	-2.018018170819293	-1.725962185733588	-0.9547194225253867	9.67702313750828	0.01773913626769362	1.763560288471705	-5.514778757612897	9.641749030498573	9.641749030499286	-2.54424484341801	0.4082569389578469	2.60773296440197	0.8076377514151174	5.509962731313045e-08	-5.255218366690488e-08	-3.705802081258431e-07	6.900553040673906e-08	8.383435334583607e-08	-5.068005500826493e-07	-1.649326443829162e-07
0.06	-0.00232579638772684	0.1235684608140275	0.932847694561754	0.2126459785425597	-0.2132147286997857	-0.2360582918125612	-0.3016438239760418	0.2502702993525976	0.2502702993525981	0.09520097380867136	0.1632394782067373	0.09447984195083378	0.08394477654042226	-0.1305029231635146	-0.1117010782854471	-0.05743388981469049	0.6224249200688551	0.001703930125390846	0.1135269637569074	-0.3594802569913703	0.6181025091655599	0.6181025091655724	-0.1657823446544496	0.02930888456551928	0.1666322704118466	0.05193637932621997	0.09303316089421303	-0.06237333165520791	0.001605081002508165	-0.2318109592950564	0.1033259615769778	-0.04335676432251171	-0.01557997176049166	-29.72189587367593	-10.26046209032145	-16.33446320081957	-1.876302224265436	2.743058493093301	-601.9186253078497	65.84097903286921	-2.115850585091587	-1.664443153090429	-0.9967075242920915	9.625698650936698	-0.01924565661840697	1.683175619021216	-5.09887816815665	9.495213350527919	9.495213350527942	-2.414869178208199	0.4314784960564946	2.578184054924635	0.7578871039454101	4.777390130789342e-08	-6.612244861476262e-08	-3.203319145178493e-07	-4.990068291076321e-08	8.965398514133294e-08	-6.203131652803926e-07	-5.622960848619035e-08
0.07000000000000001	-0.003731056167598375	0.1223696026438658	0.9322239264779439	0.2193385265192912	-0.2131981014155376	-0.2348398057632544	-0.3054943050495053	0.2569161601749369	0.256916160174936	0.09342424928328238	0.1635516694997619	0.09627224384664378	0.08450193612229691	-0.1504516392889897	-0.1279554719411141	-0.06735964339836156	0.7155722471143113	0.001618956302128934	0.1300354759830741	-0.4102092199659601	0.7105648310554953	0.7105648310554949	-0.1893954991898431	0.03306225991311004	0.1917211318103736	0.05946353676814599	0.0870621160412576	-0.05983274249870482	0.001875029676459273	-0.2285445186238413	0.09915793947102686	-0.04185073352602182	-0.01074789829265338	-29.78469129781878	-11.35756138374226	-15.85150961778795	-1.977260953602074	2.749851016413394	-600.0407655544576	65.40705272912285	-1.919759880167517	-1.588656899575267	-0.9966221816122436	9.082387431317816	-0.003550448662412892	1.614475344449512	-4.9988947018553	9.046008505199323	9.046008505197392	-2.3095321595778	0.3371956014790145	2.455196811314707	0.7452747822162272	3.783581286881876e-08	-8.041932057070681e-08	-2.835040468197011e-07	-2.551092413060098e-07	9.555269676395014e-08	-7.253479114879653e-07	1.080895032561512e-07
0.08	-0.005332878659501116	0.1210116566515935	0.931499678277056	0.2269471753064739	-0.2131824093102205	-0.2334602773276799	-0.3098398736206628	0.2644714975955702	0.2644714975955706	0.09141639449887103	0.163899380255736	0.09831172628223848	0.0851333962221708	-0.1698154655701555	-0.143518642707596	-0.07752991323032464	0.8056450821584742	0.001516894339572523	0.1457354410106464	-0.458497756530359	0.7999978288243497	0.7999978288243375	-0.2120083964601522	0.03641277715544587	0.2160483783688196	0.06679648292607335	0.08109107118832273	-0.05729215334219704	0.002144978350415229	-0.2252780779526142	0.09498991736508187	-0.04034470272952438	-0.005915824824802808	-29.84944942624482	-12.39164629610233	-15.36805998151978	-2.066262279465644	2.739826975937921	-597.1843966326494	64.82440394049424	-1.998872616229736	-1.526198575253388	-1.045610773950491	9.010800250677999	-0.02266328447730392	1.521466179302331	-4.610792886118466	8.88934852631172	8.889348526311924	-2.214817725191315	0.350906875005506	2.425861086908458	0.7190448471456824	2.772918491788363e-08	-9.476307039814045e-08	-2.475420130512204e-07	-4.658856929320783e-07	1.014565103108977e-07	-8.298356984058496e-07	2.75996748924016e-07
0.09	-0.00712603271186626	0.1195015473160138	0.9306722775907936	0.2354420263365792	-0.2131683594696192	-0.2319273898464735	-0.3146556211090276	0.2729065070381812	0.272906507038184	0.08918855796257269	0.1642785569780859	0.1005906597691941	0.08583654729713994	-0.1887215929084602	-0.1583849587516052	-0.08800196717870709	0.8928219150234985	0.001298373315874438	0.1606857024178878	-0.50425632641681	0.8865047994353723	0.8865047994353639	-0.2334099089113339	0.03936472223330403	0.2396148311564358	0.07381422392569305	0.07496159324924863	-0.05513696121836342	0.002441345409937148	-0.2227461259146931	0.09139937959150665	-0.03859063597783275	-0.001002511809330055	-29.91351493149892	-13.24867298567847	-14.7550474979795	-2.165456105598857	2.593121743928892	-594.6943291630699	64.57211646355503	-1.822404795487777	-1.449087883730432	-1.055931834598695	8.495643839910766	-0.0207535913087708	1.4582865645705	-4.499076831084262	8.456476906570998	8.456476906571407	-2.08054909658975	0.2585824166082412	2.303524661582586	0.6901179022045397	1.452519176389226e-08	-1.109850763059454e-07	-2.108286858670506e-07	-7.366898094361253e-07	1.078217831280311e-07	-9.276763817632764e-07	4.798761364434065e-07
